<svg width="21" height="24" viewBox="0 0 21 24" fill="none" xmlns="http://www.w3.org/2000/svg">
<path id="Vector" d="M3.92815 0V5.81759H21V0H3.92815ZM11.6689 12.9708H13.3078V9.78277L1.79067 7.67137V3.87752H2.8822V2.19647L0 2.22803C0 2.22803 0 4.88207 0 7.09133C0 9.06757 1.26171 9.34245 2.21933 9.47483C3.43853 9.64329 11.6689 11.1416 11.6689 11.1416V12.9708ZM9.88121 22.1332C9.88121 23.1091 10.6079 24 12.429 24C14.2503 24 14.8584 22.994 14.8584 22.0182C14.8584 21.0409 14.8584 13.8575 14.8584 13.8575H9.91156C9.91156 13.8575 9.88126 21.1545 9.88126 22.1333L9.88121 22.1332Z" fill="white"/>
</svg>
